<svg width="762" height="1080" viewBox="0 0 762 1080" fill="none" xmlns="http://www.w3.org/2000/svg">
<path d="M-1.4209 -1.31439V1080.93H756.625V-1.31439H-1.4209Z" fill="#414558"/>
<path d="M92.4844 540.14L187.361 1080.14H756.622V0.139812H187.361L92.4844 540.14Z" fill="#575B70"/>
<path d="M187.361 540.14L377.115 1080.14H756.623V0.139812H377.115L187.361 540.14Z" fill="#6D7288"/>
<path d="M282.238 540.14L566.869 1080.14H756.623V0.139812H566.869L282.238 540.14Z" fill="#888C9B"/>
<path d="M756.623 0.139812L377.115 540.14L756.623 1080.14V0.139812Z" fill="#A3A5AE"/>
<path d="M756.622 216.14L471.991 540.14L756.622 864.14V216.14Z" fill="#BDBEC3"/>
<path d="M756.622 720.162V360.117L566.868 540.14L756.622 720.162Z" fill="#D6D6D8"/>
<path d="M756.622 618.372V462.987L661.745 540.14L756.622 618.372Z" fill="#EEEEEE"/>
</svg>
