<svg width="128" height="38" viewBox="0 0 128 38" fill="none" xmlns="http://www.w3.org/2000/svg">
<path d="M68.0896 10.6056V33.5333H63.2908L62.45 30.6007H62.1218C61.6296 31.38 61.0144 32.0157 60.2761 32.5079C59.5378 33.0001 58.7244 33.3624 57.8357 33.5948C56.947 33.8273 56.0242 33.9435 55.0671 33.9435C53.4265 33.9435 51.9978 33.6564 50.781 33.0822C49.5642 32.4943 48.614 31.5851 47.9304 30.3546C47.2605 29.1241 46.9255 27.5245 46.9255 25.5558V10.6056H53.1804V23.9972C53.1804 25.6378 53.4744 26.8751 54.0623 27.7091C54.6501 28.5431 55.5867 28.9601 56.8718 28.9601C58.1433 28.9601 59.1414 28.673 59.866 28.0988C60.5906 27.5109 61.0964 26.6564 61.3835 25.5353C61.6843 24.4005 61.8347 23.0197 61.8347 21.3927V10.6056H68.0896ZM87.6746 10.1749C90.1218 10.1749 92.0906 10.8448 93.5808 12.1847C95.071 13.5109 95.8162 15.6437 95.8162 18.5831V33.5333H89.5613V20.1417C89.5613 18.5011 89.2605 17.2638 88.6589 16.4298C88.071 15.5958 87.1414 15.1788 85.8699 15.1788C83.9558 15.1788 82.6501 15.8282 81.9529 17.1271C81.2556 18.4259 80.907 20.299 80.907 22.7462V33.5333H74.6521V10.6056H79.4304L80.2712 13.5382H80.6199C81.1121 12.7452 81.7205 12.1027 82.4451 11.6105C83.1833 11.1183 83.9968 10.756 84.8855 10.5236C85.7878 10.2911 86.7175 10.1749 87.6746 10.1749ZM123.092 22.0284C123.092 23.9425 122.832 25.6378 122.312 27.1144C121.806 28.5909 121.061 29.8419 120.077 30.8673C119.106 31.879 117.93 32.6447 116.55 33.1642C115.182 33.6837 113.637 33.9435 111.915 33.9435C110.302 33.9435 108.818 33.6837 107.465 33.1642C106.125 32.6447 104.956 31.879 103.958 30.8673C102.973 29.8419 102.208 28.5909 101.661 27.1144C101.128 25.6378 100.861 23.9425 100.861 22.0284C100.861 19.4855 101.312 17.3322 102.215 15.5685C103.117 13.8048 104.402 12.465 106.07 11.549C107.738 10.6329 109.727 10.1749 112.038 10.1749C114.184 10.1749 116.085 10.6329 117.739 11.549C119.407 12.465 120.713 13.8048 121.656 15.5685C122.613 17.3322 123.092 19.4855 123.092 22.0284ZM107.239 22.0284C107.239 23.5323 107.403 24.797 107.731 25.8224C108.059 26.8478 108.572 27.6202 109.269 28.1398C109.967 28.6593 110.876 28.9191 111.997 28.9191C113.104 28.9191 114 28.6593 114.683 28.1398C115.381 27.6202 115.886 26.8478 116.201 25.8224C116.529 24.797 116.693 23.5323 116.693 22.0284C116.693 20.5109 116.529 19.2531 116.201 18.255C115.886 17.2433 115.381 16.4845 114.683 15.9786C113.986 15.4728 113.077 15.2198 111.956 15.2198C110.302 15.2198 109.098 15.7872 108.346 16.922C107.608 18.0568 107.239 19.7589 107.239 22.0284Z" fill="#2D3142"/>
<path d="M26.6 0H39.2667L27.8667 38H15.2L26.6 0Z" fill="#2D3142"/>
<path d="M40.5334 0H41.8003L30.4 38H28.787L40.5334 0Z" fill="#2D3142"/>
<path d="M11.4 0H24.0667L12.6667 38H0L11.4 0Z" fill="#2D3142"/>
</svg>
